<svg width="1363" height="163" viewBox="0 0 1363 163" fill="none" xmlns="http://www.w3.org/2000/svg">
<path d="M0 15C0 6.71573 6.71573 0 15 0H37V163H15C6.71573 163 0 156.284 0 148V15Z" fill="#424242"/>
<rect width="1097" height="163" transform="translate(37)" fill="#F0F0F0"/>
<path d="M101.906 53.9219L94.3945 51.2383V48.0859L104.602 52.375V54.6367L101.906 53.9219ZM94.3945 56.1719L101.918 53.4297L104.602 52.7852V55.0352L94.3945 59.3242V56.1719ZM112.898 43.9375H119.262C120.566 43.9375 121.688 44.1328 122.625 44.5234C123.57 44.9141 124.297 45.4922 124.805 46.2578C125.312 47.0234 125.566 47.9648 125.566 49.082C125.566 49.9961 125.41 50.7812 125.098 51.4375C124.793 52.0859 124.359 52.6289 123.797 53.0664C123.242 53.4961 122.59 53.8398 121.84 54.0977L120.727 54.6836H115.195L115.172 51.9414H119.285C119.902 51.9414 120.414 51.832 120.82 51.6133C121.227 51.3945 121.531 51.0898 121.734 50.6992C121.945 50.3086 122.051 49.8555 122.051 49.3398C122.051 48.793 121.949 48.3203 121.746 47.9219C121.543 47.5234 121.234 47.2188 120.82 47.0078C120.406 46.7969 119.887 46.6914 119.262 46.6914H116.414V61H112.898V43.9375ZM122.438 61L118.547 53.3945L122.262 53.3711L126.199 60.8359V61H122.438ZM133.898 61.2344C132.914 61.2344 132.031 61.0781 131.25 60.7656C130.469 60.4453 129.805 60.0039 129.258 59.4414C128.719 58.8789 128.305 58.2266 128.016 57.4844C127.727 56.7344 127.582 55.9375 127.582 55.0938V54.625C127.582 53.6641 127.719 52.7852 127.992 51.9883C128.266 51.1914 128.656 50.5 129.164 49.9141C129.68 49.3281 130.305 48.8789 131.039 48.5664C131.773 48.2461 132.602 48.0859 133.523 48.0859C134.422 48.0859 135.219 48.2344 135.914 48.5312C136.609 48.8281 137.191 49.25 137.66 49.7969C138.137 50.3438 138.496 51 138.738 51.7656C138.98 52.5234 139.102 53.3672 139.102 54.2969V55.7031H129.023V53.4531H135.785V53.1953C135.785 52.7266 135.699 52.3086 135.527 51.9414C135.363 51.5664 135.113 51.2695 134.777 51.0508C134.441 50.832 134.012 50.7227 133.488 50.7227C133.043 50.7227 132.66 50.8203 132.34 51.0156C132.02 51.2109 131.758 51.4844 131.555 51.8359C131.359 52.1875 131.211 52.6016 131.109 53.0781C131.016 53.5469 130.969 54.0625 130.969 54.625V55.0938C130.969 55.6016 131.039 56.0703 131.18 56.5C131.328 56.9297 131.535 57.3008 131.801 57.6133C132.074 57.9258 132.402 58.168 132.785 58.3398C133.176 58.5117 133.617 58.5977 134.109 58.5977C134.719 58.5977 135.285 58.4805 135.809 58.2461C136.34 58.0039 136.797 57.6406 137.18 57.1562L138.82 58.9375C138.555 59.3203 138.191 59.6875 137.73 60.0391C137.277 60.3906 136.73 60.6797 136.09 60.9062C135.449 61.125 134.719 61.2344 133.898 61.2344ZM146.262 58.5977C146.676 58.5977 147.043 58.5195 147.363 58.3633C147.684 58.1992 147.934 57.9727 148.113 57.6836C148.301 57.3867 148.398 57.0391 148.406 56.6406H151.582C151.574 57.5312 151.336 58.3242 150.867 59.0195C150.398 59.707 149.77 60.25 148.98 60.6484C148.191 61.0391 147.309 61.2344 146.332 61.2344C145.348 61.2344 144.488 61.0703 143.754 60.7422C143.027 60.4141 142.422 59.9609 141.938 59.3828C141.453 58.7969 141.09 58.1172 140.848 57.3438C140.605 56.5625 140.484 55.7266 140.484 54.8359V54.4961C140.484 53.5977 140.605 52.7617 140.848 51.9883C141.09 51.207 141.453 50.5273 141.938 49.9492C142.422 49.3633 143.027 48.9062 143.754 48.5781C144.48 48.25 145.332 48.0859 146.309 48.0859C147.348 48.0859 148.258 48.2852 149.039 48.6836C149.828 49.082 150.445 49.6523 150.891 50.3945C151.344 51.1289 151.574 52 151.582 53.0078H148.406C148.398 52.5859 148.309 52.2031 148.137 51.8594C147.973 51.5156 147.73 51.2422 147.41 51.0391C147.098 50.8281 146.711 50.7227 146.25 50.7227C145.758 50.7227 145.355 50.8281 145.043 51.0391C144.73 51.2422 144.488 51.5234 144.316 51.8828C144.145 52.2344 144.023 52.6367 143.953 53.0898C143.891 53.5352 143.859 54.0039 143.859 54.4961V54.8359C143.859 55.3281 143.891 55.8008 143.953 56.2539C144.016 56.707 144.133 57.1094 144.305 57.4609C144.484 57.8125 144.73 58.0898 145.043 58.293C145.355 58.4961 145.762 58.5977 146.262 58.5977ZM157.301 59.5703L160.664 48.3203H164.285L159.188 62.9102C159.078 63.2305 158.93 63.5742 158.742 63.9414C158.562 64.3086 158.316 64.6562 158.004 64.9844C157.699 65.3203 157.312 65.5938 156.844 65.8047C156.383 66.0156 155.816 66.1211 155.145 66.1211C154.824 66.1211 154.562 66.1016 154.359 66.0625C154.156 66.0234 153.914 65.9688 153.633 65.8984V63.4258C153.719 63.4258 153.809 63.4258 153.902 63.4258C153.996 63.4336 154.086 63.4375 154.172 63.4375C154.617 63.4375 154.98 63.3867 155.262 63.2852C155.543 63.1836 155.77 63.0273 155.941 62.8164C156.113 62.6133 156.25 62.3477 156.352 62.0195L157.301 59.5703ZM155.895 48.3203L158.648 57.5078L159.129 61.082L156.832 61.3281L152.273 48.3203H155.895ZM170.707 58.5977C171.121 58.5977 171.488 58.5195 171.809 58.3633C172.129 58.1992 172.379 57.9727 172.559 57.6836C172.746 57.3867 172.844 57.0391 172.852 56.6406H176.027C176.02 57.5312 175.781 58.3242 175.312 59.0195C174.844 59.707 174.215 60.25 173.426 60.6484C172.637 61.0391 171.754 61.2344 170.777 61.2344C169.793 61.2344 168.934 61.0703 168.199 60.7422C167.473 60.4141 166.867 59.9609 166.383 59.3828C165.898 58.7969 165.535 58.1172 165.293 57.3438C165.051 56.5625 164.93 55.7266 164.93 54.8359V54.4961C164.93 53.5977 165.051 52.7617 165.293 51.9883C165.535 51.207 165.898 50.5273 166.383 49.9492C166.867 49.3633 167.473 48.9062 168.199 48.5781C168.926 48.25 169.777 48.0859 170.754 48.0859C171.793 48.0859 172.703 48.2852 173.484 48.6836C174.273 49.082 174.891 49.6523 175.336 50.3945C175.789 51.1289 176.02 52 176.027 53.0078H172.852C172.844 52.5859 172.754 52.2031 172.582 51.8594C172.418 51.5156 172.176 51.2422 171.855 51.0391C171.543 50.8281 171.156 50.7227 170.695 50.7227C170.203 50.7227 169.801 50.8281 169.488 51.0391C169.176 51.2422 168.934 51.5234 168.762 51.8828C168.59 52.2344 168.469 52.6367 168.398 53.0898C168.336 53.5352 168.305 54.0039 168.305 54.4961V54.8359C168.305 55.3281 168.336 55.8008 168.398 56.2539C168.461 56.707 168.578 57.1094 168.75 57.4609C168.93 57.8125 169.176 58.0898 169.488 58.293C169.801 58.4961 170.207 58.5977 170.707 58.5977ZM181.547 43V61H178.16V43H181.547ZM187.898 48.3203V61H184.512V48.3203H187.898ZM184.301 45.0156C184.301 44.5234 184.473 44.1172 184.816 43.7969C185.16 43.4766 185.621 43.3164 186.199 43.3164C186.77 43.3164 187.227 43.4766 187.57 43.7969C187.922 44.1172 188.098 44.5234 188.098 45.0156C188.098 45.5078 187.922 45.9141 187.57 46.2344C187.227 46.5547 186.77 46.7148 186.199 46.7148C185.621 46.7148 185.16 46.5547 184.816 46.2344C184.473 45.9141 184.301 45.5078 184.301 45.0156ZM194.988 61H191.59V47.1953C191.59 46.2344 191.777 45.4258 192.152 44.7695C192.535 44.1055 193.07 43.6055 193.758 43.2695C194.453 42.9258 195.277 42.7539 196.23 42.7539C196.543 42.7539 196.844 42.7773 197.133 42.8242C197.422 42.8633 197.703 42.9141 197.977 42.9766L197.941 45.5195C197.793 45.4805 197.637 45.4531 197.473 45.4375C197.309 45.4219 197.117 45.4141 196.898 45.4141C196.492 45.4141 196.145 45.4844 195.855 45.625C195.574 45.7578 195.359 45.957 195.211 46.2227C195.062 46.4883 194.988 46.8125 194.988 47.1953V61ZM197.52 48.3203V50.7109H189.703V48.3203H197.52ZM203.051 59.5703L206.414 48.3203H210.035L204.938 62.9102C204.828 63.2305 204.68 63.5742 204.492 63.9414C204.312 64.3086 204.066 64.6562 203.754 64.9844C203.449 65.3203 203.062 65.5938 202.594 65.8047C202.133 66.0156 201.566 66.1211 200.895 66.1211C200.574 66.1211 200.312 66.1016 200.109 66.0625C199.906 66.0234 199.664 65.9688 199.383 65.8984V63.4258C199.469 63.4258 199.559 63.4258 199.652 63.4258C199.746 63.4336 199.836 63.4375 199.922 63.4375C200.367 63.4375 200.73 63.3867 201.012 63.2852C201.293 63.1836 201.52 63.0273 201.691 62.8164C201.863 62.6133 202 62.3477 202.102 62.0195L203.051 59.5703ZM201.645 48.3203L204.398 57.5078L204.879 61.082L202.582 61.3281L198.023 48.3203H201.645Z" fill="#888888"/>
<path d="M114.117 84.875H122.344V107.164C122.344 109.82 121.789 112.07 120.68 113.914C119.57 115.742 118.016 117.125 116.016 118.062C114.016 119 111.664 119.469 108.961 119.469C106.289 119.469 103.938 119 101.906 118.062C99.8906 117.125 98.3125 115.742 97.1719 113.914C96.0469 112.07 95.4844 109.82 95.4844 107.164V84.875H103.734V107.164C103.734 108.57 103.938 109.719 104.344 110.609C104.75 111.484 105.344 112.125 106.125 112.531C106.906 112.938 107.852 113.141 108.961 113.141C110.086 113.141 111.031 112.938 111.797 112.531C112.562 112.125 113.141 111.484 113.531 110.609C113.922 109.719 114.117 108.57 114.117 107.164V84.875ZM136.266 84.875V119H128.062V84.875H136.266ZM172.523 84.875H180.75V107.164C180.75 109.82 180.195 112.07 179.086 113.914C177.977 115.742 176.422 117.125 174.422 118.062C172.422 119 170.07 119.469 167.367 119.469C164.695 119.469 162.344 119 160.312 118.062C158.297 117.125 156.719 115.742 155.578 113.914C154.453 112.07 153.891 109.82 153.891 107.164V84.875H162.141V107.164C162.141 108.57 162.344 109.719 162.75 110.609C163.156 111.484 163.75 112.125 164.531 112.531C165.312 112.938 166.258 113.141 167.367 113.141C168.492 113.141 169.438 112.938 170.203 112.531C170.969 112.125 171.547 111.484 171.938 110.609C172.328 109.719 172.523 108.57 172.523 107.164V84.875ZM193.078 84.875L198.656 96.2188L204.234 84.875H213.609L204.094 101.797L213.867 119H204.398L198.656 107.445L192.914 119H183.422L193.219 101.797L183.68 84.875H193.078Z" fill="black"/>
<path d="M1134 0H1348C1356.28 0 1363 6.71573 1363 15V148C1363 156.284 1356.28 163 1348 163H1134V0Z" fill="#187B1B"/>
<path d="M1248.5 111.917C1244.51 111.917 1240.55 111.13 1236.86 109.601C1233.17 108.073 1229.82 105.832 1226.99 103.008C1221.29 97.3036 1218.08 89.567 1218.08 81.5C1218.08 73.433 1221.29 65.6964 1226.99 59.9922C1232.7 54.2879 1240.43 51.0833 1248.5 51.0833C1265.23 51.0833 1278.92 63.25 1278.92 78.4583C1278.92 83.2985 1276.99 87.9405 1273.57 91.363C1270.15 94.7856 1265.51 96.7083 1260.67 96.7083H1255.19C1254.28 96.7083 1253.67 97.3167 1253.67 98.2292C1253.67 98.5333 1253.97 98.8375 1253.97 99.1417C1255.19 100.662 1255.8 102.487 1255.8 104.312C1256.1 108.571 1252.76 111.917 1248.5 111.917ZM1248.5 57.1667C1242.05 57.1667 1235.86 59.7303 1231.29 64.2937C1226.73 68.8571 1224.17 75.0464 1224.17 81.5C1224.17 87.9536 1226.73 94.1429 1231.29 98.7063C1235.86 103.27 1242.05 105.833 1248.5 105.833C1249.41 105.833 1250.02 105.225 1250.02 104.312C1250.02 103.704 1249.72 103.4 1249.72 103.096C1248.5 101.575 1247.89 100.054 1247.89 98.2292C1247.89 93.9708 1251.24 90.625 1255.5 90.625H1260.67C1263.89 90.625 1266.99 89.3432 1269.27 87.0615C1271.55 84.7798 1272.83 81.6851 1272.83 78.4583C1272.83 66.5958 1261.88 57.1667 1248.5 57.1667ZM1231.77 75.4167C1234.2 75.4167 1236.33 77.5458 1236.33 79.9792C1236.33 82.4125 1234.2 84.5417 1231.77 84.5417C1229.34 84.5417 1227.21 82.4125 1227.21 79.9792C1227.21 77.5458 1229.34 75.4167 1231.77 75.4167ZM1240.9 63.25C1243.33 63.25 1245.46 65.3792 1245.46 67.8125C1245.46 70.2458 1243.33 72.375 1240.9 72.375C1238.46 72.375 1236.33 70.2458 1236.33 67.8125C1236.33 65.3792 1238.46 63.25 1240.9 63.25ZM1256.1 63.25C1258.54 63.25 1260.67 65.3792 1260.67 67.8125C1260.67 70.2458 1258.54 72.375 1256.1 72.375C1253.67 72.375 1251.54 70.2458 1251.54 67.8125C1251.54 65.3792 1253.67 63.25 1256.1 63.25ZM1265.23 75.4167C1267.66 75.4167 1269.79 77.5458 1269.79 79.9792C1269.79 82.4125 1267.66 84.5417 1265.23 84.5417C1262.8 84.5417 1260.67 82.4125 1260.67 79.9792C1260.67 77.5458 1262.8 75.4167 1265.23 75.4167Z" fill="white"/>
</svg>
